G04 Layer_Color=16711935*
%FSLAX44Y44*%
%MOMM*%
G71*
G01*
G75*
%ADD29C,1.7272*%
%ADD30R,1.7032X1.6032*%
%ADD31C,1.7032*%
%ADD32C,1.6032*%
%ADD33C,3.2032*%
%ADD34R,1.7032X1.7032*%
%ADD35O,1.7032X1.2032*%
%ADD36R,1.7032X1.2032*%
%ADD37C,1.9558*%
%ADD38R,1.9558X1.9558*%
D29*
X606044Y87884D02*
D03*
X256540Y281940D02*
D03*
X281940Y281690D02*
D03*
X307340Y282190D02*
D03*
D30*
X360680Y334010D02*
D03*
D31*
X386080D02*
D03*
X287020Y181610D02*
D03*
X236220D02*
D03*
X134620Y96520D02*
D03*
X109220D02*
D03*
X834390Y359410D02*
D03*
X808990D02*
D03*
X783590D02*
D03*
X758190D02*
D03*
X732790D02*
D03*
X707390D02*
D03*
X681990D02*
D03*
X656590D02*
D03*
X631190D02*
D03*
X605790D02*
D03*
X580390D02*
D03*
X554990D02*
D03*
X529590D02*
D03*
X504190D02*
D03*
X834390Y44450D02*
D03*
X808990D02*
D03*
X783590D02*
D03*
X758190D02*
D03*
X732790D02*
D03*
X707390D02*
D03*
X681990D02*
D03*
X656590D02*
D03*
X631190D02*
D03*
X605790D02*
D03*
X580390D02*
D03*
X554990D02*
D03*
X529590D02*
D03*
X504190D02*
D03*
X261620Y181610D02*
D03*
D32*
X231140Y334010D02*
D03*
X332740D02*
D03*
X60960Y157480D02*
D03*
X162560D02*
D03*
Y186690D02*
D03*
X60960D02*
D03*
X350520Y88900D02*
D03*
X248920D02*
D03*
X231140Y121920D02*
D03*
X332740D02*
D03*
D33*
X59690Y300990D02*
D03*
X110490D02*
D03*
X161290D02*
D03*
D34*
X312420Y181610D02*
D03*
X83820Y96520D02*
D03*
X478790Y359410D02*
D03*
Y44450D02*
D03*
D35*
X256540Y224030D02*
D03*
X307340D02*
D03*
D36*
X256540Y240030D02*
D03*
X307340D02*
D03*
D37*
X834644Y87884D02*
D03*
X733044D02*
D03*
X758444D02*
D03*
X783844D02*
D03*
X682244D02*
D03*
X656844D02*
D03*
X630174D02*
D03*
X479044D02*
D03*
X504444D02*
D03*
X529844D02*
D03*
X555244D02*
D03*
X580644D02*
D03*
X606044D02*
D03*
X834644Y316484D02*
D03*
X733044D02*
D03*
X758444D02*
D03*
X783844D02*
D03*
X707644D02*
D03*
X682244D02*
D03*
X656844D02*
D03*
X479044D02*
D03*
X504444D02*
D03*
X529844D02*
D03*
X553974D02*
D03*
X580644D02*
D03*
X606044D02*
D03*
D38*
X809244Y87884D02*
D03*
X708914D02*
D03*
X809244Y316484D02*
D03*
X632714D02*
D03*
M02*
