G04 Layer_Physical_Order=2*
G04 Layer_Color=16711680*
%FSLAX44Y44*%
%MOMM*%
%TF.FileFunction,Copper,L2,Bot,Signal*%
%TF.Part,Single*%
G01*
G75*
%TA.AperFunction,Conductor*%
%ADD10C,0.5080*%
%ADD11C,0.3810*%
%ADD12C,0.2540*%
%TA.AperFunction,NonConductor*%
%ADD13C,0.3810*%
%ADD14C,0.7620*%
%TA.AperFunction,ComponentPad*%
%ADD15C,1.5000*%
%ADD16R,1.5000X1.5000*%
%ADD17C,1.7526*%
%ADD18R,1.7526X1.7526*%
%ADD19C,2.9210*%
%ADD20C,1.4000*%
%ADD21C,1.5240*%
%ADD22R,1.5000X1.0000*%
%ADD23O,1.5000X1.0000*%
%ADD24C,3.0000*%
%ADD25R,1.5000X1.4000*%
%TA.AperFunction,ViaPad*%
%ADD26C,1.5240*%
D10*
X631190Y318008D02*
Y359410D01*
X834644Y87884D02*
Y211074D01*
X904240Y280670D01*
Y351790D01*
X873125Y382905D02*
X904240Y351790D01*
X134620Y96520D02*
Y209550D01*
X135890Y157480D02*
X162560D01*
X110490Y233680D02*
Y300990D01*
Y233680D02*
X134620Y209550D01*
X59690Y246380D02*
Y300990D01*
Y246380D02*
X109220Y196850D01*
Y96520D02*
Y196850D01*
X176530Y121920D02*
X231140D01*
X162560Y135890D02*
X176530Y121920D01*
X226060Y157480D02*
X236220Y167640D01*
Y181610D01*
X162560Y157480D02*
X226060D01*
X809244Y44704D02*
Y87884D01*
X808990Y29210D02*
Y44450D01*
X802640Y22860D02*
X808990Y29210D01*
X54610Y22860D02*
X802640D01*
X33020Y44450D02*
X54610Y22860D01*
X33020Y44450D02*
Y317500D01*
X53340Y337820D01*
X93980D01*
X110490Y321310D01*
Y300990D02*
Y321310D01*
X281940Y224030D02*
Y281690D01*
X256540Y224030D02*
X281940D01*
X307340D01*
X161290Y300990D02*
X205740D01*
X224790Y281940D01*
X256540D01*
Y240030D02*
Y281940D01*
X307340Y240030D02*
Y282190D01*
X464185Y382905D02*
X873125D01*
X363220Y181610D02*
X398780Y217170D01*
X312420Y181610D02*
X363220D01*
X307340Y282190D02*
X397260D01*
X398780Y217170D02*
Y317500D01*
X386080Y334010D02*
X415290D01*
X398780Y317500D02*
X415290Y334010D01*
X464185Y382905D01*
X332740Y334010D02*
X360680D01*
X231140Y334010D02*
X266700D01*
X281940Y318770D01*
Y281690D02*
Y318770D01*
X236220Y203710D02*
X256540Y224030D01*
X236220Y181610D02*
Y203710D01*
D11*
X60960Y49530D02*
Y157480D01*
X733044Y150114D02*
Y316484D01*
X716280Y133350D02*
X733044Y150114D01*
X425450Y133350D02*
X716280D01*
X401320Y109220D02*
X425450Y133350D01*
X401320Y90170D02*
Y109220D01*
X365760Y54610D02*
X401320Y90170D01*
X92710Y54610D02*
X365760D01*
X83820Y63500D02*
X92710Y54610D01*
X83820Y63500D02*
Y96520D01*
X60960Y157480D02*
Y186690D01*
X161290Y187960D02*
Y300990D01*
X504444Y44704D02*
Y87884D01*
X708914Y45974D02*
Y87884D01*
X733044Y44704D02*
Y87884D01*
X834390Y316738D02*
Y359410D01*
X808990Y316738D02*
Y359410D01*
X605790Y316738D02*
Y359410D01*
X479044Y44704D02*
Y87884D01*
X529844Y44704D02*
Y87884D01*
X555244Y44704D02*
Y87884D01*
X580644Y44704D02*
Y87884D01*
X606044Y44704D02*
Y87884D01*
X630174Y45466D02*
Y87884D01*
X656844Y44704D02*
Y87884D01*
X682244Y44704D02*
Y87884D01*
X783844Y44704D02*
Y87884D01*
X758444Y44704D02*
Y87884D01*
X834644Y44704D02*
Y87884D01*
X479044Y316484D02*
Y359156D01*
X504444Y316484D02*
Y359156D01*
X529844Y316484D02*
Y359156D01*
X553974Y316484D02*
Y358394D01*
X580644Y316484D02*
Y359156D01*
X656844Y316484D02*
Y359156D01*
X682244Y316484D02*
Y359156D01*
X707644Y316484D02*
Y359156D01*
X733044Y316484D02*
Y359156D01*
X758444Y316484D02*
Y359156D01*
X783844Y316484D02*
Y359156D01*
X261620Y101600D02*
Y181610D01*
X248920Y88900D02*
X261620Y101600D01*
X332740Y92710D02*
Y121920D01*
Y92710D02*
X336550Y88900D01*
X350520D01*
X542290Y167640D02*
X580644Y205994D01*
Y316484D01*
X332740Y121920D02*
X375920D01*
X405130Y151130D01*
X607060D01*
X656844Y200914D01*
Y316484D01*
X358140Y167640D02*
X542290D01*
X342900Y152400D02*
X358140Y167640D01*
X295910Y152400D02*
X342900D01*
X287020Y161290D02*
X295910Y152400D01*
X287020Y161290D02*
Y181610D01*
X60960Y49530D02*
X66040Y44450D01*
X478790D01*
D12*
X656590Y87630D02*
X656844Y87884D01*
X732790Y359410D02*
X733044Y359156D01*
X783590Y359410D02*
X783844Y359156D01*
D13*
X161290Y137160D02*
Y153670D01*
D14*
X923290Y0D02*
Y398780D01*
X0D02*
X923290D01*
X0Y0D02*
X923290D01*
X0D02*
Y398780D01*
D15*
X261620Y181610D02*
D03*
X504190Y44450D02*
D03*
X529590D02*
D03*
X554990D02*
D03*
X580390D02*
D03*
X605790D02*
D03*
X631190D02*
D03*
X656590D02*
D03*
X681990D02*
D03*
X707390D02*
D03*
X732790D02*
D03*
X758190D02*
D03*
X783590D02*
D03*
X808990D02*
D03*
X834390D02*
D03*
X504190Y359410D02*
D03*
X529590D02*
D03*
X554990D02*
D03*
X580390D02*
D03*
X605790D02*
D03*
X631190D02*
D03*
X656590D02*
D03*
X681990D02*
D03*
X707390D02*
D03*
X732790D02*
D03*
X758190D02*
D03*
X783590D02*
D03*
X808990D02*
D03*
X834390D02*
D03*
X109220Y96520D02*
D03*
X134620D02*
D03*
X236220Y181610D02*
D03*
X287020D02*
D03*
X386080Y334010D02*
D03*
D16*
X478790Y44450D02*
D03*
Y359410D02*
D03*
X83820Y96520D02*
D03*
X312420Y181610D02*
D03*
D17*
X606044Y316484D02*
D03*
X580644D02*
D03*
X553974D02*
D03*
X529844D02*
D03*
X504444D02*
D03*
X479044D02*
D03*
X656844D02*
D03*
X682244D02*
D03*
X707644D02*
D03*
X783844D02*
D03*
X758444D02*
D03*
X733044D02*
D03*
X834644D02*
D03*
X606044Y87884D02*
D03*
X580644D02*
D03*
X555244D02*
D03*
X529844D02*
D03*
X504444D02*
D03*
X479044D02*
D03*
X630174D02*
D03*
X656844D02*
D03*
X682244D02*
D03*
X783844D02*
D03*
X758444D02*
D03*
X733044D02*
D03*
X834644D02*
D03*
D18*
X632714Y316484D02*
D03*
X809244D02*
D03*
X708914Y87884D02*
D03*
X809244D02*
D03*
D19*
X875284Y98044D02*
D03*
Y306324D02*
D03*
X438404Y98044D02*
D03*
Y306324D02*
D03*
D20*
X332740Y121920D02*
D03*
X231140D02*
D03*
X248920Y88900D02*
D03*
X350520D02*
D03*
X60960Y186690D02*
D03*
X162560D02*
D03*
Y157480D02*
D03*
X60960D02*
D03*
X332740Y334010D02*
D03*
X231140D02*
D03*
D21*
X307340Y282190D02*
D03*
X281940Y281690D02*
D03*
X256540Y281940D02*
D03*
D22*
X307340Y240030D02*
D03*
X256540D02*
D03*
D23*
X307340Y224030D02*
D03*
X256540D02*
D03*
D24*
X161290Y300990D02*
D03*
X110490D02*
D03*
X59690D02*
D03*
D25*
X360680Y334010D02*
D03*
D26*
X606044Y87884D02*
D03*
%TF.MD5,AD88B7CED21D89403FF69A58E7F070E1*%
M02*
