M48
;Layer_Color=9474304
;FILE_FORMAT=2:5
INCH,LZ
;TYPE=PLATED
T1F00S00C0.03000
T2F00S00C0.03346
T3F00S00C0.03500
T4F00S00C0.03543
T5F00S00C0.04724
;TYPE=NON_PLATED
T6F00S00C0.11500
%
T01
X02386Y00346
X01195Y0119098
X01095Y0118902
X00995Y0119
T02
X0087Y00555
X0127
Y0069
X0087
X0064Y00735
Y0062
X00915Y0138
X01315
X0024Y00735
Y0062
T03
X01886Y00346
X01986
X02086
X02186
X02286
X02386
X02481
X02586
X02686
X02791
X02886
X02986
X03086
X03186
X03286
Y01246
X03186
X03086
X02986
X02886
X02786
X02686
X02586
X02491
X02386
X02286
X02181
X02086
X01986
X01886
T04
X0033Y0038
X0043
X0053
X0089Y00385
X0099
X0109
X0119
X01885Y00175
X01985
X02085
X02185
X02285
X02385
X02485
X02585
X02685
X02785
X02885
X02985
X03085
X03185
X03285
Y01415
X03185
X03085
X02985
X02885
X02785
X02685
X02585
X02485
X02385
X02285
X02185
X02085
X01985
X01885
X01165Y01535
X01065
X01Y0097
Y0090701
X01195
Y0097
T05
X00635Y01185
X00435
X00235
T06
X01726Y00386
X03446
Y01206
X01726
M30
