G04 Layer_Physical_Order=1*
G04 Layer_Color=255*
%FSLAX44Y44*%
%MOMM*%
G71*
G01*
G75*
%ADD10C,1.5240*%
%ADD11R,1.5000X1.4000*%
%ADD12C,1.5000*%
%ADD13C,1.4000*%
%ADD14C,3.0000*%
%ADD15R,1.5000X1.5000*%
%ADD16O,1.5000X1.0000*%
%ADD17R,1.5000X1.0000*%
%ADD18C,2.9210*%
%ADD19C,1.7526*%
%ADD20R,1.7526X1.7526*%
D10*
X606044Y87884D02*
D03*
X256540Y281940D02*
D03*
X281940Y281690D02*
D03*
X307340Y282190D02*
D03*
D11*
X360680Y334010D02*
D03*
D12*
X386080D02*
D03*
X287020Y181610D02*
D03*
X236220D02*
D03*
X134620Y96520D02*
D03*
X109220D02*
D03*
X834390Y359410D02*
D03*
X808990D02*
D03*
X783590D02*
D03*
X758190D02*
D03*
X732790D02*
D03*
X707390D02*
D03*
X681990D02*
D03*
X656590D02*
D03*
X631190D02*
D03*
X605790D02*
D03*
X580390D02*
D03*
X554990D02*
D03*
X529590D02*
D03*
X504190D02*
D03*
X834390Y44450D02*
D03*
X808990D02*
D03*
X783590D02*
D03*
X758190D02*
D03*
X732790D02*
D03*
X707390D02*
D03*
X681990D02*
D03*
X656590D02*
D03*
X631190D02*
D03*
X605790D02*
D03*
X580390D02*
D03*
X554990D02*
D03*
X529590D02*
D03*
X504190D02*
D03*
X261620Y181610D02*
D03*
D13*
X231140Y334010D02*
D03*
X332740D02*
D03*
X60960Y157480D02*
D03*
X162560D02*
D03*
Y186690D02*
D03*
X60960D02*
D03*
X350520Y88900D02*
D03*
X248920D02*
D03*
X231140Y121920D02*
D03*
X332740D02*
D03*
D14*
X59690Y300990D02*
D03*
X110490D02*
D03*
X161290D02*
D03*
D15*
X312420Y181610D02*
D03*
X83820Y96520D02*
D03*
X478790Y359410D02*
D03*
Y44450D02*
D03*
D16*
X256540Y224030D02*
D03*
X307340D02*
D03*
D17*
X256540Y240030D02*
D03*
X307340D02*
D03*
D18*
X438404Y306324D02*
D03*
Y98044D02*
D03*
X875284Y306324D02*
D03*
Y98044D02*
D03*
D19*
X834644Y87884D02*
D03*
X733044D02*
D03*
X758444D02*
D03*
X783844D02*
D03*
X682244D02*
D03*
X656844D02*
D03*
X630174D02*
D03*
X479044D02*
D03*
X504444D02*
D03*
X529844D02*
D03*
X555244D02*
D03*
X580644D02*
D03*
X606044D02*
D03*
X834644Y316484D02*
D03*
X733044D02*
D03*
X758444D02*
D03*
X783844D02*
D03*
X707644D02*
D03*
X682244D02*
D03*
X656844D02*
D03*
X479044D02*
D03*
X504444D02*
D03*
X529844D02*
D03*
X553974D02*
D03*
X580644D02*
D03*
X606044D02*
D03*
D20*
X809244Y87884D02*
D03*
X708914D02*
D03*
X809244Y316484D02*
D03*
X632714D02*
D03*
M02*
